<?xml version="1.0" encoding="UTF-8"?>
<svg xmlns="http://www.w3.org/2000/svg" xmlns:xlink="http://www.w3.org/1999/xlink" width="59px" height="59px" viewBox="0 0 59 59" version="1.1">
    <!-- Generator: Sketch 52.6 (67491) - http://www.bohemiancoding.com/sketch -->
    <title>016 - Coins</title>
    <desc>Created with Sketch.</desc>
    <g id="Page-1" stroke="none" stroke-width="1" fill="none" fill-rule="evenodd">
        <g id="016---Coins">
            <path d="M24,4 L24,13 L0,13 L0,43 C0,45.21 5.37,47 12,47 L12,54 C12,56.21 17.37,58 24,58 C29.8,58 34.64,56.63 35.76,54.8 L35.76,54.79 C32.7273901,52.2344555 30.9840494,48.465763 31,44.5 C31.0054741,41.5472827 31.9706372,38.6763611 33.75,36.32 C34.4062001,35.4638956 35.1614574,34.688498 36,34.01 C39.3617308,31.2892342 43.8223921,30.3413437 48,31.46 L48,4 L24,4 Z" id="Path" fill="#F0C419"/>
            <ellipse id="Oval" fill="#F9EAB0" cx="12" cy="13" rx="12" ry="4"/>
            <path d="M24,13 L24,18 C24,20.21 18.63,22 12,22 C5.37,22 0,20.21 0,18 L0,13 C0,15.21 5.37,17 12,17 C18.63,17 24,15.21 24,13 Z" id="Path" fill="#F3D55B"/>
            <path d="M24,23 L24,30 C19.62,30 15.79,30.78 13.69,31.96 L13.68,31.96 C13.13,31.99 12.58,32 12,32 C5.37,32 0,30.21 0,28 L0,23 C0,25.21 5.37,27 12,27 C18.63,27 24,25.21 24,23 Z" id="Path" fill="#F3D55B"/>
            <path d="M12,37 L12,42 C5.37,42 0,40.21 0,38 L0,33 C0,35.21 5.37,37 12,37 Z" id="Path" fill="#F3D55B"/>
            <ellipse id="Oval" fill="#F9EAB0" cx="36" cy="4" rx="12" ry="4"/>
            <path d="M48,24 L48,31.46 C43.8223921,30.3413437 39.3617308,31.2892342 36,34.01 L36,34 C35.9907384,33.6283574 35.8529116,33.2714213 35.61,32.99 C34.27,31.27 29.58,30 24,30 L24,24 C24,26.21 29.37,28 36,28 C42.63,28 48,26.21 48,24 Z" id="Path" fill="#F3D55B"/>
            <path d="M48,14 L48,19 C48,21.21 42.63,23 36,23 C29.37,23 24,21.21 24,19 L24,14 C24,16.21 29.37,18 36,18 C42.63,18 48,16.21 48,14 Z" id="Path" fill="#F3D55B"/>
            <path d="M48,4 L48,9 C48,11.21 42.63,13 36,13 C29.37,13 24,11.21 24,9 L24,4 C24,6.21 29.37,8 36,8 C42.63,8 48,6.21 48,4 Z" id="Path" fill="#F3D55B"/>
            <path d="M36,34 L36,34.01 C35.1614574,34.688498 34.4062001,35.4638956 33.75,36.32 C32.5588335,36.8534261 31.305851,37.2363751 30.02,37.46 L30,37.46 C28.0213773,37.8278878 26.0125143,38.0086855 24,38 C21.1267914,38.0469323 18.2634159,37.6523328 15.51,36.83 L15.5,36.83 C13.34,36.1 12,35.1 12,34 C12,33.26 12.61,32.56 13.68,31.96 L13.69,31.96 C15.79,30.78 19.62,30 24,30 C29.58,30 34.27,31.27 35.61,32.99 C35.8529116,33.2714213 35.9907384,33.6283574 36,34 Z" id="Path" fill="#F9EAB0"/>
            <path d="M33.75,36.32 C32.4398791,38.04663 31.5651833,40.0635756 31.2,42.2 C28.8404042,42.7523367 26.4232893,43.020905 24,43 C21.1267914,43.0469323 18.2634159,42.6523328 15.51,41.83 L15.5,41.83 C13.34,41.1 12,40.1 12,39 L12,34 C12,35.1 13.34,36.1 15.5,36.83 L15.51,36.83 C18.2634159,37.6523328 21.1267914,38.0469323 24,38 C26.0125143,38.0086855 28.0213773,37.8278878 30,37.46 L30.02,37.46 C31.305851,37.2363751 32.5588335,36.8534261 33.75,36.32 Z" id="Path" fill="#F3D55B"/>
            <path d="M33.03,51.63 C30.121319,52.6031266 27.0664253,53.0666043 24,53 C17.37,53 12,51.21 12,49 L12,44 C12,45.1 13.34,46.1 15.5,46.83 L15.51,46.83 C18.2634159,47.6523328 21.1267914,48.0469323 24,48 C26.4444961,48.0259307 28.8828719,47.7505218 31.26,47.18 C31.5831431,48.7560516 32.1823638,50.2625669 33.03,51.63 Z" id="Path" fill="#F3D55B"/>
            <path d="M58,44.5 C57.9958989,49.7593678 54.9399553,54.5383251 50.1675547,56.7485646 C45.395154,58.9588042 39.7738351,58.1985431 35.76,54.8 L35.76,54.79 C32.7273901,52.2344555 30.9840494,48.465763 31,44.5 C31.0054741,41.5472827 31.9706372,38.6763611 33.75,36.32 C34.4062001,35.4638956 35.1614574,34.688498 36,34.01 C40.0439412,30.7326153 45.6118613,30.072123 50.3103378,32.3124421 C55.0088144,34.5527611 58.0007371,39.2947421 58,44.5 Z" id="Path" fill="#F0C419"/>
            <path d="M44.5,59 C41.0645573,58.9961163 37.7408276,57.7792452 35.115,55.564 C35.082,55.536 35.051,55.506 35.021,55.475 C33.9173947,54.5170111 32.9617004,53.4009111 32.185,52.163 C31.2722344,50.694183 30.6272434,49.0751034 30.28,47.381 C30.0945085,46.4318657 30.0007434,45.4670897 30,44.5 C30.0062685,41.3293314 31.0426359,38.2465508 32.953,35.716 C36.5277051,31.0377084 42.5703281,28.9761262 48.259,30.494 C55.2888805,32.3774963 59.8334305,39.1802973 58.8819622,46.3956619 C57.9304939,53.6110265 51.7778272,59.0032178 44.5,59 Z M36.49,54.107 C40.8436131,57.7599552 47.1090045,58.0301801 51.7609679,54.7656333 C56.4129313,51.5010866 58.2894652,45.5172106 56.3347425,40.1808178 C54.3800199,34.8444249 49.0823057,31.4884786 43.4223452,32.0011933 C37.7623847,32.5139081 33.1539644,36.7672142 32.19,42.368 C32.0652743,43.0718539 32.0017038,43.7851826 32,44.5 C32.0002667,45.3351474 32.0809727,46.1683278 32.241,46.988 C32.5408408,48.4445141 33.0957053,49.8365842 33.88,51.1 C34.5692232,52.1974362 35.4212927,53.1837058 36.407,54.025 C36.4364324,54.0504864 36.4641588,54.0778787 36.49,54.107 Z" id="Shape" fill="#B19046" fill-rule="nonzero"/>
            <path d="M44.5,43.5 C42.6,43.5 41,42.47 41,41.25 C41,40.14 42.331,39.196 44,39.034 L44,40 C44,40.5522847 44.4477153,41 45,41 C45.5522847,41 46,40.5522847 46,40 L46,39.234 C47.168,39.603 48,40.374 48,41.25 C48,41.8022847 48.4477153,42.25 49,42.25 C49.5522847,42.25 50,41.8022847 50,41.25 C50,39.273 48.327,37.669 46,37.174 L46,36 C46,35.4477153 45.5522847,35 45,35 C44.4477153,35 44,35.4477153 44,36 L44,37.038 C41.163,37.23 39,39 39,41.25 C39,43.633 41.416,45.5 44.5,45.5 C46.4,45.5 48,46.53 48,47.75 C48,48.626 47.168,49.397 46,49.766 L46,49 C46,48.4477153 45.5522847,48 45,48 C44.4477153,48 44,48.4477153 44,49 L44,49.966 C42.331,49.804 41,48.86 41,47.75 C41,47.1977153 40.5522847,46.75 40,46.75 C39.4477153,46.75 39,47.1977153 39,47.75 C39,50 41.163,51.77 44,51.962 L44,53 C44,53.5522847 44.4477153,54 45,54 C45.5522847,54 46,53.5522847 46,53 L46,51.826 C48.327,51.331 50,49.726 50,47.75 C50,45.367 47.584,43.5 44.5,43.5 Z" id="Path" fill="#F9EAB0"/>
        </g>
    </g>
</svg>
